<?xml version="1.0" standalone="no"?>
<!DOCTYPE svg PUBLIC "-//W3C//DTD SVG 20010904//EN"
 "http://www.w3.org/TR/2001/REC-SVG-20010904/DTD/svg10.dtd">
<svg version="1.0" xmlns="http://www.w3.org/2000/svg"
 width="512.000000pt" height="512.000000pt" viewBox="0 0 512.000000 512.000000"
 preserveAspectRatio="xMidYMid meet">
<metadata>
Created by potrace 1.15, written by Peter Selinger 2001-2017
</metadata>
<g transform="translate(0.000000,512.000000) scale(0.100000,-0.100000)"
fill="#000000" stroke="none">
<path d="M421 4844 c-72 -19 -146 -60 -182 -101 -55 -63 -126 -232 -206 -488
l-28 -90 -3 -1754 c-3 -1917 -6 -1801 55 -1928 51 -108 143 -176 291 -214 73
-18 132 -19 2212 -19 2080 0 2139 1 2212 19 148 38 240 106 291 214 61 127 58
22 55 1818 l-3 1644 -27 68 c-38 94 -82 151 -151 197 -73 49 -155 75 -301 96
-94 13 -275 17 -1173 21 -768 4 -1066 9 -1077 17 -8 6 -31 51 -50 99 -114 278
-184 358 -353 402 -84 22 -1480 21 -1562 -1z m1426 -330 c19 -9 45 -31 59 -49
32 -43 111 -220 165 -372 l44 -122 1240 -3 1240 -3 50 -23 c65 -30 98 -63 127
-126 l23 -51 3 -1450 c2 -1097 -1 -1463 -10 -1505 -6 -30 -13 -47 -16 -37 -2
9 -8 17 -13 17 -6 0 -7 5 -3 11 7 11 -12 29 -31 29 -5 0 -3 -5 5 -10 10 -6 11
-10 3 -10 -7 0 -13 -7 -13 -15 0 -17 -16 -20 -25 -5 -4 6 -10 8 -15 5 -5 -3
-11 -1 -15 5 -10 17 -25 11 -25 -9 0 -12 -14 -26 -37 -37 -37 -18 -107 -19
-2055 -19 l-2016 0 -24 23 c-14 12 -28 19 -32 15 -4 -5 -7 -3 -6 2 5 21 -1 29
-10 15 -8 -12 -10 -12 -10 5 0 16 -2 17 -9 5 -6 -8 -7 -18 -5 -22 3 -4 -2 -5
-11 -1 -10 3 -21 0 -25 -8 -5 -7 -13 -10 -17 -5 -10 9 26 38 38 30 5 -3 6 2 3
10 -5 14 -25 26 -51 32 -21 4 -15 -4 15 -21 24 -15 15 -14 -22 1 -18 7 -15
-38 4 -61 16 -19 5 -32 -13 -16 -35 29 -37 99 -37 1650 0 1264 3 1537 14 1591
27 126 156 473 188 507 12 13 36 27 52 32 17 5 303 10 634 10 540 1 608 -1
639 -15z"/>
</g>
</svg>
